<svg id="Group_9214" data-name="Group 9214" xmlns="http://www.w3.org/2000/svg" width="39" height="39" viewBox="0 0 39 39">
  <circle id="Ellipse_6" data-name="Ellipse 6" cx="19.5" cy="19.5" r="19.5" fill="#fff"/>
  <path id="Path_32073" data-name="Path 32073" d="M14.71,4.621A5.98,5.98,0,0,0,16.086.36a5.927,5.927,0,0,0-3.929,2.034,5.594,5.594,0,0,0-1.408,4.1A4.946,4.946,0,0,0,14.71,4.621m1.357,2.162c-2.189-.13-4.049,1.243-5.094,1.243S8.328,6.849,6.6,6.881a6.456,6.456,0,0,0-5.487,3.332C-1.243,14.266.489,20.278,2.775,23.578c1.111,1.632,2.448,3.431,4.212,3.366,1.666-.066,2.319-1.079,4.344-1.079s2.612,1.079,4.376,1.045c1.83-.032,2.973-1.634,4.082-3.268a14.517,14.517,0,0,0,1.828-3.757,5.934,5.934,0,0,1-3.56-5.393,6.049,6.049,0,0,1,2.873-5.065,6.247,6.247,0,0,0-4.863-2.644" transform="translate(8.698 3.847)" fill="#231f20"/>
</svg>
