<svg xmlns="http://www.w3.org/2000/svg" xmlns:xlink="http://www.w3.org/1999/xlink" width="70" height="70" viewBox="0 0 70 70">
  <defs>
    <clipPath id="clip-path">
      <rect id="Rectangle_81" data-name="Rectangle 81" width="15" height="11" fill="#ff674f"/>
    </clipPath>
  </defs>
  <g id="Group_9114" data-name="Group 9114" transform="translate(-1850 -1003)">
    <path id="Path_32041" data-name="Path 32041" d="M35,0A35,35,0,1,1,0,35,35,35,0,0,1,35,0Z" transform="translate(1850 1003)" fill="#fff"/>
    <g id="Group_7725" data-name="Group 7725" transform="translate(1878 1033)">
      <g id="Group_7702" data-name="Group 7702" clip-path="url(#clip-path)">
        <path id="Path_23074" data-name="Path 23074" d="M9.074.287h0a.98.98,0,0,0,0,1.386l2.6,2.6H.98a.98.98,0,0,0,0,1.96H11.638l-2.6,2.6a.98.98,0,0,0,0,1.386h0a.98.98,0,0,0,1.386,0l4.287-4.287a.98.98,0,0,0,0-1.386L10.459.287a.98.98,0,0,0-1.386,0" transform="translate(0 0.5)" fill="#ff674f"/>
      </g>
    </g>
  </g>
</svg>
