<svg xmlns="http://www.w3.org/2000/svg" width="35.368" height="35.368" viewBox="0 0 35.368 35.368">
  <g id="Group_23272" data-name="Group 23272" transform="translate(-44 -47.312)">
    <path id="Path_32073" data-name="Path 32073" d="M151.825,290.952h41.438a2.219,2.219,0,0,0,0-4.429H151.825a2.219,2.219,0,0,0,0,4.429" transform="translate(143.845 -261.179) rotate(45)" fill="#ff674f"/>
    <path id="Path_32074" data-name="Path 32074" d="M2.075,0H43.513a2.148,2.148,0,0,1,2.075,2.214,2.148,2.148,0,0,1-2.075,2.214H2.075A2.148,2.148,0,0,1,0,2.214,2.148,2.148,0,0,1,2.075,0" transform="translate(79.367 50.444) rotate(135)" fill="#ff674f"/>
  </g>
</svg>
