<svg xmlns="http://www.w3.org/2000/svg" width="50.93" height="33.286" viewBox="0 0 50.93 33.286">
  <g id="Group_9069" data-name="Group 9069" transform="translate(-663.07 -51)">
    <path id="Path_23619" data-name="Path 23619" d="M172.065,290.952h26.223a2.217,2.217,0,1,0,0-4.429H172.065a2.217,2.217,0,1,0,0,4.429" transform="translate(493.32 -206.666)" fill="#ff674f"/>
    <path id="Path_23145" data-name="Path 23145" d="M152.065,290.952h46.223a2.217,2.217,0,1,0,0-4.429H152.065a2.217,2.217,0,1,0,0,4.429" transform="translate(513.32 -221.094)" fill="#ff674f"/>
    <path id="Path_23147" data-name="Path 23147" d="M198.742,200H152.519a2.217,2.217,0,1,0,0,4.429h46.223a2.217,2.217,0,1,0,0-4.429" transform="translate(512.943 -149)" fill="#ff674f"/>
  </g>
</svg>
