<svg xmlns="http://www.w3.org/2000/svg" xmlns:xlink="http://www.w3.org/1999/xlink" width="30" height="30" viewBox="0 0 30 30">
  <defs>
    <clipPath id="clip-path">
      <rect id="Rectangle_288" data-name="Rectangle 288" width="10.244" height="13.758" fill="#fff"/>
    </clipPath>
  </defs>
  <g id="Group_9072" data-name="Group 9072" transform="translate(-0.463 0.025)">
    <rect id="Rectangle_276" data-name="Rectangle 276" width="30" height="30" rx="15" transform="translate(0.463 -0.025)" fill="#ff674f"/>
    <g id="Group_9084" data-name="Group 9084" transform="translate(10.341 8.096)">
      <g id="Group_9084-2" data-name="Group 9084" clip-path="url(#clip-path)">
        <path id="Path_32043" data-name="Path 32043" d="M8.614,5.144H8.553V3.431a3.431,3.431,0,1,0-6.861,0V5.144H1.63A1.626,1.626,0,0,0,0,6.773v5.355a1.626,1.626,0,0,0,1.63,1.63H8.614a1.626,1.626,0,0,0,1.63-1.63V6.773a1.626,1.626,0,0,0-1.63-1.63M5.439,10.286a.317.317,0,1,1-.633,0V7.224a.317.317,0,0,1,.633,0ZM7.3,5.144H2.946V3.431a2.176,2.176,0,0,1,4.353,0Z" fill="#fff"/>
      </g>
    </g>
  </g>
</svg>
