<svg xmlns="http://www.w3.org/2000/svg" xmlns:xlink="http://www.w3.org/1999/xlink" width="45" height="45" viewBox="0 0 45 45">
  <defs>
    <clipPath id="clip-path">
      <rect id="Rectangle_294" data-name="Rectangle 294" width="20.007" height="20.007" fill="#fff"/>
    </clipPath>
  </defs>
  <g id="Group_23276" data-name="Group 23276" transform="translate(-1255 -196)">
    <g id="Ellipse_1747" data-name="Ellipse 1747" transform="translate(1255 196)" fill="none" stroke="#fff" stroke-width="0.5">
      <circle cx="22.5" cy="22.5" r="22.5" stroke="none"/>
      <circle cx="22.5" cy="22.5" r="22.25" fill="none"/>
    </g>
    <g id="Group_9198" data-name="Group 9198" transform="translate(1267.497 208.496)">
      <g id="Group_9197" data-name="Group 9197" clip-path="url(#clip-path)">
        <path id="Path_32070" data-name="Path 32070" d="M10,0A10,10,0,0,0,5.988,19.166a8.787,8.787,0,0,1,.174-2.3c.192-.812,1.287-5.451,1.287-5.451a3.843,3.843,0,0,1-.32-1.583c0-1.482.859-2.59,1.929-2.59a1.34,1.34,0,0,1,1.349,1.5,21.534,21.534,0,0,1-.883,3.55A1.548,1.548,0,0,0,11.1,14.224c1.9,0,3.172-2.434,3.172-5.319,0-2.192-1.477-3.833-4.162-3.833A4.737,4.737,0,0,0,5.188,9.863a2.888,2.888,0,0,0,.659,1.962.485.485,0,0,1,.144.558c-.048.184-.158.627-.2.8a.345.345,0,0,1-.5.25c-1.4-.571-2.049-2.1-2.049-3.822,0-2.842,2.4-6.249,7.15-6.249,3.819,0,6.333,2.764,6.333,5.73,0,3.924-2.182,6.856-5.4,6.856A2.869,2.869,0,0,1,8.879,14.7s-.581,2.3-.7,2.75A8.373,8.373,0,0,1,7.169,19.6,10,10,0,1,0,10,0" fill="#fff"/>
      </g>
    </g>
  </g>
</svg>
