<svg xmlns="http://www.w3.org/2000/svg" xmlns:xlink="http://www.w3.org/1999/xlink" width="96.024" height="72.695" viewBox="0 0 96.024 72.695">
  <defs>
    <clipPath id="clip-path">
      <rect id="Rectangle_84" data-name="Rectangle 84" width="96.024" height="72.695" fill="#ff674f"/>
    </clipPath>
  </defs>
  <g id="Group_8988" data-name="Group 8988" transform="translate(96.024 72.696) rotate(180)" opacity="0.13">
    <g id="Group_7743" data-name="Group 7743" transform="translate(0 0.001)" clip-path="url(#clip-path)">
      <path id="Path_23110" data-name="Path 23110" d="M55.363,54.269c-.693.638-1.458,0-1.969-.393.178-.5.5-.858.68-1.357.938-.046,1.128.664,1.289,1.395V44.646a2.608,2.608,0,0,0-.27.406c-.723-.3-1.014-1.826.27-1.7V30.323H37.871V27.213c0-6.606,5.055-11.66,12.053-11.66h5.439V0H44.092C26.206,0,12.6,10.109,12.6,27.606v9.5A35.6,35.6,0,0,0,48.2,72.7h1.133a6.037,6.037,0,0,0,6.035-6.039Zm-5.7-41.459c.888-.1,1.462.123,1.357,1.014-.888.1-1.7.118-1.357-1.014M43.555,36.565c.689.478-.334,1.171.338,2.037-.549.1-.583-.321-1.019-.338-.292-1.086.533-1.052.68-1.7M40.5,47.089a2.886,2.886,0,0,1-.342,2.037c-.5-.178-.854-.5-1.357-.68.063-.955.592-1.445,1.7-1.357M38.462,2.624c-.676.566-.431-.03-1.357,0a.725.725,0,1,1,1.357,0M17.42,45.728c-1.42-.224-.161-2.1.676-1.014-.118.444-.6.533-.676,1.014m1.695,1.019c-.634-.6.275-.862,0-2.033.266.752,1.128.909,1.019,2.033Zm1.361,7.806c.579-.613,1.331.106,1.357,1.019-.888.1-1.462-.123-1.357-1.019M22.17,43.014c.807.211,1.581.456,1.7,1.357-1.107.089-1.636-.4-1.7-1.357m1.019-18.329c.118-1.2.892-.875,1.695-.676-.046.74-.854.727-1.695.676m3.732,24.44c.287-.8,1.488.279,2.037.338-.473.985-1.674-.1-2.037-.338m4.755-17.311c-.216-.33-.076-2.362-.68-.68-1.331-.321.2-1.221.68-1.695.959-.059.659,1.145,2.033.676-.562.68-.909,1.581-2.033,1.7m3.394-2.375c.735-.283.752-1.281,1.695-1.361.841.761-1.1,2.033-1.695,1.361m3.056,22.737c-.486-.03-.964-.055-1.019.342-.575-.27-.042-2.278,1.019-2.037ZM36.087,49.8c-1.238-1.04,1.538-.926,1.695-1.695,1.369,1.171-1.779.685-1.695,1.695m5.093,0c-.237.275-.533.93,0,1.019A6.684,6.684,0,0,1,38.8,51.839c.723-1.285,1.45-.731,2.379-2.037m0,8.824c-.1-.888.123-1.458,1.014-1.357.44.8-.042.63.342,1.7-.71.144-.9-.232-1.357-.342m1.695-7.806c-1.521-.013-.059-1.8,0-2.375H45.25c-.4,1.183-2.857.313-2.375,2.375m1.019-6.107c.059-1.073,1.34-.921,2.375-1.019-.613.516-1.04,1.221-2.375,1.019m5.769-5.431c.347-.761,2.274-.27,2.037.676-.435-.469-1.6-.207-2.037-.676m5.431,1.695v.68h-1.7c-.347-1.141,1.057-.528,1.7-.68" transform="translate(40.657 -0.002)" fill="#ff674f"/>
      <path id="Path_23111" data-name="Path 23111" d="M35.674,71.182c1.044-.317.625.824.664,1.513a6.033,6.033,0,0,0,6.035-6.035V30.323H24.88V27.213c0-6.61,5.055-11.664,12.438-11.664h5.055V0H31.1A39.16,39.16,0,0,0,17.349,2.358c.232,1.289-1.395,1.61-1.695.672A27.462,27.462,0,0,0,8.359,7.7.84.84,0,0,1,9.2,9.074c-.837.093-.875-.609-.993-1.23A24.782,24.782,0,0,0,.482,22.2a.976.976,0,0,0,.913.106,2.213,2.213,0,0,0-1.035.714A31.334,31.334,0,0,0,0,27.6v9.5A35.59,35.59,0,0,0,35.593,72.7c-.4-.431-.448-1.331.08-1.513m3.736-20.7c1.285-.49.651.934,1.695.68-.465.892-1.428,1.285-1.695,2.375-.888-.583.478-1.758,0-3.056M30.585,8.393C31.8,8.195,31.616,9.4,31.6,10.43H30.585ZM3.094,33.51c1.416.224.156,2.1-.68,1.019.118-.448.6-.537.68-1.019m-1.7,6.107c.486.533,1.771.27,1.7,1.357-.828-.19-1.745-.287-1.7-1.357M9.881,7.375c-.275-1.289,1.6-.431,2.375-.68-.634.186-1.741,1.619-2.375.68m9.5-4.412c-.148.3-.3.609-.676.68a2.4,2.4,0,0,0,1.019.676c-.6,2.324-2.7-1.792-.342-1.357M22.1,41.654c-1.234.1-.452-1.809-1.019-2.375a1.268,1.268,0,0,1,1.7,0c-1.272,1-.4,1.374-.68,2.375M24.474,48.1c.4.055.6-.076.68-.338a1.657,1.657,0,0,1,.676,1.695q-1.591.241-1.357-1.357m3.736-5.769c.824.19,1.745.292,1.695,1.357-.993-.025-1.914-.123-1.695-1.357M29.9,57.946c-.33-.008-.262-.414-.338-.676-.051-.63-1.15-.211-1.357-.68.173-.5.5-.858.676-1.357.959-.283.879.478,1.7.338a7.217,7.217,0,0,0-.68,2.375" transform="translate(0 -0.002)" fill="#ff674f"/>
    </g>
  </g>
</svg>
