<svg xmlns="http://www.w3.org/2000/svg" width="45" height="45" viewBox="0 0 45 45">
  <g id="Group_9177" data-name="Group 9177" transform="translate(-1673 -490)">
    <path id="Path_32041" data-name="Path 32041" d="M22.5,0A22.5,22.5,0,1,1,0,22.5,22.5,22.5,0,0,1,22.5,0Z" transform="translate(1673 490)" fill="#fff"/>
    <path id="Path_32067" data-name="Path 32067" d="M14.832,15.822a3.522,3.522,0,0,0-2.358.9L6.818,12.763a3.535,3.535,0,0,0,0-2.631l5.656-3.961a3.534,3.534,0,1,0-.924-1.319L5.894,8.813a3.536,3.536,0,1,0,0,5.269l5.656,3.961a3.536,3.536,0,1,0,3.282-2.221" transform="translate(1686 501)" fill="#ff674f"/>
  </g>
</svg>
