<svg xmlns="http://www.w3.org/2000/svg" width="45" height="45" viewBox="0 0 45 45">
  <g id="Group_23275" data-name="Group 23275" transform="translate(-1193 -196)">
    <g id="Ellipse_1750" data-name="Ellipse 1750" transform="translate(1193 196)" fill="none" stroke="#fff" stroke-width="0.5">
      <circle cx="22.5" cy="22.5" r="22.5" stroke="none"/>
      <circle cx="22.5" cy="22.5" r="22.25" fill="none"/>
    </g>
    <path id="Path_32071" data-name="Path 32071" d="M18.973,5.409a5.444,5.444,0,0,1-3.288-1.1,5.464,5.464,0,0,1-2.071-3.288A5.413,5.413,0,0,1,13.509,0H9.981V9.639l0,5.278a3.2,3.2,0,0,1-2.193,3.03A3.148,3.148,0,0,1,6.6,18.1a3.193,3.193,0,0,1,.177-6.381,3.3,3.3,0,0,1,1.006.161V8.308a6.825,6.825,0,0,0-6.1,2.2,6.628,6.628,0,0,0,.3,9.14,7.263,7.263,0,0,0,.638.558,6.818,6.818,0,0,0,8.929-.558,6.6,6.6,0,0,0,1.982-4.7l-.017-7.885A8.743,8.743,0,0,0,15.5,8.215a8.89,8.89,0,0,0,3.486.7V5.4s-.008,0-.008,0" transform="translate(1206.47 207.269)" fill="#fff"/>
  </g>
</svg>
