<svg xmlns="http://www.w3.org/2000/svg" width="45" height="45" viewBox="0 0 45 45">
  <g id="Group_9199" data-name="Group 9199" transform="translate(-1132 -196)">
    <g id="Ellipse_1747" data-name="Ellipse 1747" transform="translate(1132 196)" fill="none" stroke="#fff" stroke-width="0.5">
      <circle cx="22.5" cy="22.5" r="22.5" stroke="none"/>
      <circle cx="22.5" cy="22.5" r="22.25" fill="none"/>
    </g>
    <path id="Path_23209" data-name="Path 23209" d="M95.227,128.824a10.22,10.22,0,0,0,10.289-10.289c0-.158,0-.315-.007-.465a7.409,7.409,0,0,0,1.807-1.875,7.34,7.34,0,0,1-2.077.57,3.614,3.614,0,0,0,1.59-2,7.323,7.323,0,0,1-2.295.877,3.618,3.618,0,0,0-6.255,2.475,3.314,3.314,0,0,0,.1.825,10.259,10.259,0,0,1-7.455-3.78,3.615,3.615,0,0,0,1.125,4.822,3.553,3.553,0,0,1-1.635-.45v.045a3.62,3.62,0,0,0,2.9,3.547,3.6,3.6,0,0,1-.952.128,3.453,3.453,0,0,1-.682-.068,3.611,3.611,0,0,0,3.375,2.512,7.269,7.269,0,0,1-4.492,1.545,6.577,6.577,0,0,1-.862-.052,10.075,10.075,0,0,0,5.527,1.635" transform="translate(1055.3 97.229)" fill="#fff"/>
  </g>
</svg>
