<svg xmlns="http://www.w3.org/2000/svg" xmlns:xlink="http://www.w3.org/1999/xlink" width="34.335" height="27.079" viewBox="0 0 34.335 27.079">
  <defs>
    <clipPath id="clip-path">
      <rect id="Rectangle_273" data-name="Rectangle 273" width="34.335" height="23.337"/>
    </clipPath>
  </defs>
  <g id="Group_9018" data-name="Group 9018" transform="translate(-556 -1137)">
    <path id="Path_3327" data-name="Path 3327" d="M8.832,5.046h0A.739.739,0,0,0,8.832,4L5.045.215,5.037.208C5.023.194,5.008.18,4.991.166L4.973.153,4.934.124,4.919.115,4.873.087,4.86.081C4.843.072,4.825.063,4.8.053S4.76.038,4.739.032l-.009,0C4.71.023,4.689.018,4.671.014l-.019,0L4.6,0A.766.766,0,0,0,4.45,0L4.4.011l-.019,0c-.021,0-.042.009-.058.014l-.012,0-.057.02-.01,0C4.223.063,4.2.072,4.188.081L4.176.087,4.128.115l-.016.01L4.079.149,4.071.155,4.055.168,4.027.193,4.019.2,4,.215.215,4A.738.738,0,1,0,1.259,5.045L3.786,2.518V14.672a.738.738,0,0,0,1.476,0V2.518L7.789,5.045a.739.739,0,0,0,1.043,0" transform="translate(568.827 1148.669)" fill="#ff674f"/>
    <g id="Group_4300" data-name="Group 4300" transform="translate(556 1137)">
      <g id="Group_4300-2" data-name="Group 4300" transform="translate(0 0)" clip-path="url(#clip-path)">
        <path id="Path_3328" data-name="Path 3328" d="M28.84,23.334H23.191a.661.661,0,0,1-.661-.661.713.713,0,0,1,.713-.713h5.6c3.153,0,5.481-3.537,3.219-6.861a3.065,3.065,0,0,0-1.683-1.082.686.686,0,0,1-.433-.9,4.094,4.094,0,0,0-4.465-5.53.687.687,0,0,1-.78-.58l0-.037a6.175,6.175,0,0,0-12.323.373.687.687,0,0,1-.983.6,4.112,4.112,0,0,0-5.9,3.713,4.122,4.122,0,0,0,.178,1.2.688.688,0,0,1-.75.88,2.352,2.352,0,0,0-2.2.7c-2.991,3.622-.532,7.522,2.768,7.526h7.632a.713.713,0,0,1,.713.713.661.661,0,0,1-.661.661H5.489A5.5,5.5,0,0,1,4.181,12.5,5.495,5.495,0,0,1,9.61,6.165a5.425,5.425,0,0,1,1.47.2,7.553,7.553,0,0,1,14.885-.2h.127a5.281,5.281,0,0,1,3.29,1.078,5.541,5.541,0,0,1,2.038,5.749,5.493,5.493,0,0,1-2.58,10.343" transform="translate(0 0)"/>
      </g>
    </g>
  </g>
</svg>
