<svg xmlns="http://www.w3.org/2000/svg" width="45" height="45" viewBox="0 0 45 45">
  <g id="Group_23279" data-name="Group 23279" transform="translate(-1441.554 -196)">
    <g id="Ellipse_1744" data-name="Ellipse 1744" transform="translate(1441.554 196)" fill="none" stroke="#fff" stroke-width="0.5">
      <circle cx="22.5" cy="22.5" r="22.5" stroke="none"/>
      <circle cx="22.5" cy="22.5" r="22.25" fill="none"/>
    </g>
    <g id="Group_8868" data-name="Group 8868" transform="translate(1456.028 209.361)">
      <path id="Path_1164" data-name="Path 1164" d="M7.966,124.18c-.813-.029-1.555-.049-2.3-.084q-1-.046-1.993-.119c-.425-.031-.852-.06-1.272-.131a13.054,13.054,0,0,1-1.337-.308.76.76,0,0,1-.444-.383,3.54,3.54,0,0,1-.342-1.024,11.656,11.656,0,0,1-.242-2.192c-.008-.472-.044-.943-.04-1.415a18.577,18.577,0,0,1,.127-2.283,8.662,8.662,0,0,1,.33-1.572,1.109,1.109,0,0,1,.908-.8c.489-.091.975-.2,1.467-.265.434-.058.875-.067,1.314-.1.587-.037,1.173-.082,1.761-.1.743-.028,1.486-.048,2.229-.048s1.512.017,2.268.05c.8.035,1.6.1,2.4.143a12.273,12.273,0,0,1,2.067.314,1.077,1.077,0,0,1,.8.683,6.657,6.657,0,0,1,.361,1.543,13.935,13.935,0,0,1,.154,1.776,20.3,20.3,0,0,1-.042,2.4c-.027.3-.044.607-.089.907-.066.44-.136.881-.237,1.314a3.059,3.059,0,0,1-.281.7.747.747,0,0,1-.479.367,9.636,9.636,0,0,1-1.535.315c-.867.1-1.736.176-2.607.213-1.007.043-2.015.066-2.953.095m1.671-6.714a1.359,1.359,0,0,1-.042-.221c0-.523,0-1.047,0-1.57,0-.177-.053-.233-.229-.23-.123,0-.245.007-.368.007-.368,0-.37,0-.369.364q.006,2.152.009,4.3c0,.53,0,1.06,0,1.59,0,.178.042.217.217.219.155,0,.31,0,.465,0,.222-.005.222-.006.3-.214,0-.01.019-.016.041-.033.066.042.135.087.206.13a1.044,1.044,0,0,0,.927.122.736.736,0,0,0,.418-.352,1.45,1.45,0,0,0,.151-.731c0-.846,0-1.693,0-2.539a2.065,2.065,0,0,0-.073-.555.794.794,0,0,0-.382-.535,1.013,1.013,0,0,0-1.124.14l-.149.109m2.225,2.042h0c0,.388-.014.776,0,1.163a1.459,1.459,0,0,0,.35.982,1.211,1.211,0,0,0,.756.391,3.449,3.449,0,0,0,.5,0,1.193,1.193,0,0,0,.515-.157,1.087,1.087,0,0,0,.525-.594,2.307,2.307,0,0,0,.126-.8c0-.109-.035-.15-.154-.155-.213-.007-.426-.007-.639,0-.132.006-.163.056-.17.186s-.014.245-.033.365a.337.337,0,0,1-.383.324c-.237,0-.381-.107-.4-.334-.025-.367-.027-.735-.036-1.1a.115.115,0,0,1,.118-.126c.039,0,.077-.007.116-.007l1.144,0c.084,0,.168,0,.252,0,.146-.009.175-.042.179-.193,0-.071,0-.142,0-.213,0-.362.019-.726-.017-1.085a1.113,1.113,0,0,0-.744-1.019,1.569,1.569,0,0,0-1.119-.008,1.245,1.245,0,0,0-.858.989,2.833,2.833,0,0,0-.037.423c-.005.323,0,.646,0,.97m-4.926,1.985c.03.04.048.055.05.071.008.051.01.1.013.154.011.172.04.2.208.208s.31,0,.465,0c.23,0,.255-.026.255-.258,0-.776,0-1.551,0-2.327,0-.659,0-1.319,0-1.978,0-.144-.025-.181-.16-.185-.207-.006-.414-.007-.62,0-.125,0-.156.042-.157.17,0,.368,0,.737,0,1.105,0,.718.008,1.435.006,2.153a.36.36,0,0,1-.066.233,1.561,1.561,0,0,1-.367.28.249.249,0,0,1-.377-.195.8.8,0,0,1-.016-.154q0-.766,0-1.531c0-.627,0-1.254,0-1.881,0-.146-.033-.178-.186-.182q-.271-.007-.543,0c-.2,0-.22.027-.219.227,0,1.118,0,2.237.006,3.355a6.111,6.111,0,0,0,.03.658.643.643,0,0,0,.843.561,1.558,1.558,0,0,0,.7-.391,1,1,0,0,1,.131-.093M3.72,119.15H3.7q0-.6,0-1.2c0-.453,0-.905,0-1.358,0-.163.032-.191.191-.2.045,0,.09,0,.136,0,.2,0,.4,0,.6,0,.15,0,.181-.035.184-.185,0-.187,0-.375,0-.562,0-.13-.038-.167-.153-.182a.867.867,0,0,0-.116,0l-1.784.006c-.336,0-.672,0-1.008,0-.183,0-.212.039-.213.221s0,.336,0,.5.02.192.188.2c.226,0,.452,0,.678.005.2.005.224.023.231.224.01.252.007.5.008.756q0,1.513.007,3.025c0,.44,0,.879,0,1.319,0,.178.03.212.2.215.226,0,.452,0,.679,0,.126,0,.163-.04.174-.16s.014-.219.014-.329q0-1.144,0-2.287" transform="translate(-0.001 -104.192)" fill="#fff"/>
      <path id="Path_1165" data-name="Path 1165" d="M28.933,2.809A.793.793,0,0,0,29,2.665c.092-.349.179-.7.268-1.05.114-.45.229-.9.339-1.35C29.668.027,29.7,0,29.933,0c.259,0,.517,0,.776.006.148,0,.184.057.144.2-.023.081-.057.158-.085.237-.151.439-.3.878-.451,1.319-.154.459-.3.92-.453,1.379-.055.166-.108.332-.171.494a2.935,2.935,0,0,0-.178,1.157c.017.724,0,1.448,0,2.172,0,.172-.047.222-.218.224-.252,0-.5,0-.756,0-.184,0-.216-.03-.221-.212-.008-.3-.009-.595-.009-.892,0-.465,0-.931.009-1.4a1.9,1.9,0,0,0-.116-.662c-.162-.477-.311-.957-.471-1.435s-.321-.926-.478-1.391c-.112-.33-.219-.662-.325-.994-.045-.141-.008-.191.143-.193.278,0,.556,0,.834,0a.19.19,0,0,1,.213.153c.088.324.179.647.269.971.052.187.1.373.154.56.083.312.161.625.246.937a1.221,1.221,0,0,0,.083.183h.062" transform="translate(-24.735 0)" fill="#fff"/>
      <path id="Path_1166" data-name="Path 1166" d="M77.357,24.218c0-.426,0-.852,0-1.279a1.491,1.491,0,0,1,.154-.712,1.259,1.259,0,0,1,.81-.644,1.925,1.925,0,0,1,1.255.024,1.311,1.311,0,0,1,.869,1.257c.017.89.009,1.781.014,2.672a1.681,1.681,0,0,1-.205.856,1.226,1.226,0,0,1-.691.564,1.99,1.99,0,0,1-1.221.022,1.348,1.348,0,0,1-.844-.746,1.743,1.743,0,0,1-.136-.736c-.007-.426,0-.853,0-1.279h0m1.1.024h0c0,.471,0,.942,0,1.413,0,.415.255.51.568.46a.416.416,0,0,0,.352-.423q0-1.4,0-2.807a.364.364,0,0,0-.327-.426.434.434,0,0,0-.592.446q0,.668,0,1.336" transform="translate(-71.102 -19.753)" fill="#fff"/>
      <path id="Path_1167" data-name="Path 1167" d="M128.25,27.82a1.108,1.108,0,0,0-.166.1,1.676,1.676,0,0,1-.944.452.688.688,0,0,1-.786-.653,6.657,6.657,0,0,1-.035-.91c0-1.157,0-2.315,0-3.472,0-.343,0-.343.347-.343.168,0,.336,0,.5,0,.186,0,.229.049.23.23q0,1.842,0,3.685a2.133,2.133,0,0,0,.013.271.239.239,0,0,0,.335.215,1.08,1.08,0,0,0,.49-.335.3.3,0,0,0,.059-.177c0-.75,0-1.5,0-2.25q0-.708,0-1.416c0-.188.036-.224.229-.226s.414,0,.621,0c.177,0,.215.042.215.221,0,.569,0,1.138,0,1.707q0,1.2,0,2.4c0,.246,0,.491,0,.737,0,.192-.038.23-.225.234-.207,0-.414.006-.621,0-.174,0-.212-.046-.217-.223,0-.076,0-.152,0-.227l-.052-.035" transform="translate(-116.103 -21.137)" fill="#fff"/>
      <path id="Path_1172" data-name="Path 1172" d="M118.6,170.653c0-.42.013-.84,0-1.258a.388.388,0,0,1,.542-.38.294.294,0,0,1,.217.249,2.748,2.748,0,0,1,.032.4q0,1.1,0,2.207a1.677,1.677,0,0,1-.027.288.221.221,0,0,1-.068.133.465.465,0,0,1-.478.023.321.321,0,0,1-.217-.33c0-.445,0-.891,0-1.336h0" transform="translate(-109.005 -155.328)" fill="#fff"/>
      <path id="Path_1173" data-name="Path 1173" d="M159.1,170.169c-.077,0-.155,0-.232,0-.108-.008-.162-.053-.162-.154a5.4,5.4,0,0,1,.021-.578.316.316,0,0,1,.3-.32c.247-.03.369.032.455.232a1.486,1.486,0,0,1,.062.669c0,.1-.085.141-.175.147s-.181,0-.271,0v0" transform="translate(-145.875 -155.434)" fill="#fff"/>
    </g>
  </g>
</svg>
