<svg xmlns="http://www.w3.org/2000/svg" width="33.239" height="22.89" viewBox="0 0 33.239 22.89">
  <g id="Group_87" data-name="Group 87" transform="translate(0)">
    <g id="Group_86" data-name="Group 86">
      <path id="Path_34" data-name="Path 34" d="M-711.91.605h-27.4a2.932,2.932,0,0,0-2.922,2.943v17a2.932,2.932,0,0,0,2.922,2.943h27.4a2.932,2.932,0,0,0,2.921-2.943v-17A2.932,2.932,0,0,0-711.91.605Zm-2.338,16.833a.969.969,0,0,1-1.373-.112l-5.62-6.657-3.885,2.233a.968.968,0,0,1-.965,0l-3.885-2.233-5.621,6.657a.969.969,0,0,1-1.373.112.986.986,0,0,1-.111-1.383L-731.7,9.68l-4.781-2.748a.985.985,0,0,1-.363-1.338.97.97,0,0,1,1.328-.366l9.9,5.693,9.9-5.693a.97.97,0,0,1,1.328.366.985.985,0,0,1-.363,1.338l-4.781,2.748,5.383,6.375A.986.986,0,0,1-714.247,17.438Z" transform="translate(742.227 -0.605)" fill="#ff674f"/>
    </g>
  </g>
</svg>
