<svg xmlns="http://www.w3.org/2000/svg" width="28.151" height="22.89" viewBox="0 0 28.151 22.89">
  <path id="Path_23209" data-name="Path 23209" d="M98.532,137.39c10.63,0,16.442-8.808,16.442-16.442,0-.252,0-.5-.012-.743a11.839,11.839,0,0,0,2.888-3,11.729,11.729,0,0,1-3.32.911,5.776,5.776,0,0,0,2.541-3.2,11.7,11.7,0,0,1-3.667,1.4,5.782,5.782,0,0,0-9.995,3.955,5.3,5.3,0,0,0,.156,1.318,16.394,16.394,0,0,1-11.912-6.04,5.776,5.776,0,0,0,1.8,7.706,5.677,5.677,0,0,1-2.613-.719v.072a5.785,5.785,0,0,0,4.638,5.669,5.76,5.76,0,0,1-1.522.2,5.518,5.518,0,0,1-1.091-.108,5.77,5.77,0,0,0,5.393,4.015,11.616,11.616,0,0,1-7.179,2.469,10.508,10.508,0,0,1-1.378-.084,16.1,16.1,0,0,0,8.832,2.613" transform="translate(-89.7 -114.5)" fill="#ff674f"/>
</svg>
