<svg xmlns="http://www.w3.org/2000/svg" width="22.585" height="22.89" viewBox="0 0 22.585 22.89">
  <path id="Subtraction_1" data-name="Subtraction 1" d="M-2537.707,22.89h-.007a11.161,11.161,0,0,1-5.812-1.634l-4.476,1.4a.438.438,0,0,1-.129.02.427.427,0,0,1-.3-.124.441.441,0,0,1-.118-.438l.063-.236.009-.033c.2-.751.82-3.037,1.188-4.342a11.5,11.5,0,0,1-1.71-6.057,11.456,11.456,0,0,1,3.311-8.087A11.159,11.159,0,0,1-2537.709,0a11.4,11.4,0,0,1,11.294,11.448,11.457,11.457,0,0,1-3.31,8.086A11.16,11.16,0,0,1-2537.707,22.89Zm-4.39-18.581a4.911,4.911,0,0,0-.915.1.443.443,0,0,0-.222.121,5.785,5.785,0,0,0-1.4,5.75c1.294,3.395,4.6,7.34,8.811,7.978a8.956,8.956,0,0,0,1.348.11c.123.011.247.017.37.017a4,4,0,0,0,3.977-3.681c0-.031.006-.061.008-.091V14.6a.44.44,0,0,0-.209-.461c-.8-.448-1.476-.9-1.972-1.227l-.011-.007-.088-.058a7.451,7.451,0,0,0-.773-.476.977.977,0,0,0-.518-.149.981.981,0,0,0-.631.231.512.512,0,0,0-.055.067,6.158,6.158,0,0,1-1.579,1.786,10.441,10.441,0,0,1-2.67-1.747,5.816,5.816,0,0,1-2.112-2.706c.781-.815,1.071-1.336,1.071-1.925a12.5,12.5,0,0,0-1.647-3.393A1.084,1.084,0,0,0-2542.1,4.309Z" transform="translate(2549)" fill="#ff674f"/>
</svg>
