<svg xmlns="http://www.w3.org/2000/svg" xmlns:xlink="http://www.w3.org/1999/xlink" width="392.245" height="240.217" viewBox="0 0 392.245 240.217">
  <defs>
    <clipPath id="clip-path">
      <rect id="Rectangle_110" data-name="Rectangle 110" width="392.245" height="240.217" transform="translate(1324 2908)" fill="#ffa782" stroke="#707070" stroke-width="1"/>
    </clipPath>
  </defs>
  <g id="Mask_Group_3" data-name="Mask Group 3" transform="translate(-1324 -2908)" clip-path="url(#clip-path)">
    <g id="Path_23210" data-name="Path 23210" transform="translate(1324 2938.274)" fill="#fff">
      <path d="M 290.2350463867188 579.7200927734375 C 270.5934143066406 579.7200927734375 250.9642639160156 577.7413330078125 231.8928985595703 573.8388061523438 C 213.3066864013672 570.0354614257812 195.0246124267578 564.3604125976562 177.5546112060547 556.9712524414062 C 160.401611328125 549.7161254882812 143.8574676513672 540.7362670898438 128.3817596435547 530.2810668945312 C 113.0528335571289 519.925048828125 98.63819122314453 508.0318298339844 85.53819274902344 494.9319152832031 C 72.43826293945312 481.8319091796875 60.54504776000977 467.4172668457031 50.18904495239258 452.0883178710938 C 39.73383331298828 436.6126098632812 30.75397491455078 420.0684814453125 23.49883270263672 402.9154663085938 C 16.10968971252441 385.4454650878906 10.43461799621582 367.1633911132812 6.631260871887207 348.5771789550781 C 2.728760719299316 329.5058288574219 0.7499749660491943 309.8766784667969 0.7499749660491943 290.2350463867188 C 0.7499749660491943 270.5934143066406 2.728760719299316 250.9642639160156 6.631260871887207 231.8928985595703 C 10.43461799621582 213.3066864013672 16.10968971252441 195.0246124267578 23.49883270263672 177.5546112060547 C 30.75397491455078 160.401611328125 39.73383331298828 143.8574676513672 50.18904495239258 128.3817596435547 C 60.54504776000977 113.0528335571289 72.43826293945312 98.63819122314453 85.53819274902344 85.53819274902344 C 98.63819122314453 72.43826293945312 113.0528335571289 60.54504776000977 128.3817596435547 50.18904495239258 C 143.8574676513672 39.73383331298828 160.401611328125 30.75397491455078 177.5546112060547 23.49883270263672 C 195.0246124267578 16.10968971252441 213.3066864013672 10.43461799621582 231.8928985595703 6.631260871887207 C 250.9642639160156 2.728760719299316 270.5934143066406 0.7499749660491943 290.2350463867188 0.7499749660491943 C 309.8766784667969 0.7499749660491943 329.5058288574219 2.728760719299316 348.5771789550781 6.631260871887207 C 367.1633911132812 10.43461799621582 385.4454650878906 16.10968971252441 402.9154663085938 23.49883270263672 C 420.0684814453125 30.75397491455078 436.6126098632812 39.73383331298828 452.0883178710938 50.18904495239258 C 467.4172668457031 60.54504776000977 481.8319091796875 72.43826293945312 494.9319152832031 85.53819274902344 C 508.0318298339844 98.63819122314453 519.925048828125 113.0528335571289 530.2810668945312 128.3817596435547 C 540.7362670898438 143.8574676513672 549.7161254882812 160.401611328125 556.9712524414062 177.5546112060547 C 564.3604125976562 195.0246124267578 570.0354614257812 213.3066864013672 573.8388061523438 231.8928985595703 C 577.7413330078125 250.9642639160156 579.7200927734375 270.5934143066406 579.7200927734375 290.2350463867188 C 579.7200927734375 309.8766784667969 577.7413330078125 329.5058288574219 573.8388061523438 348.5771789550781 C 570.0354614257812 367.1633911132812 564.3604125976562 385.4454650878906 556.9712524414062 402.9154663085938 C 549.7161254882812 420.0684814453125 540.7362670898438 436.6126098632812 530.2810668945312 452.0883178710938 C 519.925048828125 467.4172668457031 508.0318298339844 481.8319091796875 494.9319152832031 494.9319152832031 C 481.8319091796875 508.0318298339844 467.4172668457031 519.925048828125 452.0883178710938 530.2810668945312 C 436.6126098632812 540.7362670898438 420.0684814453125 549.7161254882812 402.9154663085938 556.9712524414062 C 385.4454650878906 564.3604125976562 367.1633911132812 570.0354614257812 348.5771789550781 573.8388061523438 C 329.5058288574219 577.7413330078125 309.8766784667969 579.7200927734375 290.2350463867188 579.7200927734375 Z" stroke="none"/>
      <path d="M 290.2350463867188 1.5 C 270.6437683105469 1.5 251.065185546875 3.4736328125 232.0432739257812 7.36602783203125 C 213.5054626464844 11.15948486328125 195.2711791992188 16.8197021484375 177.8467712402344 24.18963623046875 C 160.7383422851562 31.42584228515625 144.2371826171875 40.38238525390625 128.8015441894531 50.81048583984375 C 113.5121765136719 61.1397705078125 99.134765625 73.00225830078125 86.0684814453125 86.0684814453125 C 73.00225830078125 99.134765625 61.1397705078125 113.5121765136719 50.81048583984375 128.8015441894531 C 40.38238525390625 144.2371826171875 31.42584228515625 160.7383422851562 24.18963623046875 177.8467712402344 C 16.8197021484375 195.2711791992188 11.15948486328125 213.5054626464844 7.36602783203125 232.0432739257812 C 3.4736328125 251.065185546875 1.5 270.6437683105469 1.5 290.2350463867188 C 1.5 309.8263244628906 3.4736328125 329.4048461914062 7.36602783203125 348.4268188476562 C 11.15948486328125 366.9645385742188 16.8197021484375 385.1989135742188 24.18963623046875 402.6232604980469 C 31.42584228515625 419.731689453125 40.38238525390625 436.23291015625 50.81048583984375 451.66845703125 C 61.1397705078125 466.9578247070312 73.00225830078125 481.3353271484375 86.0684814453125 494.4015502929688 C 99.134765625 507.4677734375 113.5121765136719 519.330322265625 128.8015441894531 529.6595458984375 C 144.2371826171875 540.0877075195312 160.7383422851562 549.0442504882812 177.8467712402344 556.2804565429688 C 195.2711791992188 563.650390625 213.5054626464844 569.3106079101562 232.0432739257812 573.1040649414062 C 251.065185546875 576.9964599609375 270.6437683105469 578.9700927734375 290.2350463867188 578.9700927734375 C 309.8263244628906 578.9700927734375 329.4048461914062 576.9964599609375 348.4268188476562 573.1040649414062 C 366.9645385742188 569.3106079101562 385.1989135742188 563.650390625 402.6232604980469 556.2804565429688 C 419.731689453125 549.0442504882812 436.23291015625 540.0877075195312 451.66845703125 529.6595458984375 C 466.9578247070312 519.330322265625 481.3353271484375 507.4677734375 494.4015502929688 494.4015502929688 C 507.4677734375 481.3353271484375 519.330322265625 466.9578247070312 529.6595458984375 451.66845703125 C 540.0877075195312 436.23291015625 549.0442504882812 419.731689453125 556.2804565429688 402.6232604980469 C 563.650390625 385.1989135742188 569.3106079101562 366.9645385742188 573.1040649414062 348.4268188476562 C 576.9964599609375 329.4048461914062 578.9700927734375 309.8263244628906 578.9700927734375 290.2350463867188 C 578.9700927734375 270.6437683105469 576.9964599609375 251.065185546875 573.1040649414062 232.0432739257812 C 569.3106079101562 213.5054626464844 563.650390625 195.2711791992188 556.2804565429688 177.8467712402344 C 549.0442504882812 160.7383422851562 540.0877075195312 144.2371826171875 529.6595458984375 128.8015441894531 C 519.330322265625 113.5121765136719 507.4677734375 99.134765625 494.4015502929688 86.0684814453125 C 481.3353271484375 73.00225830078125 466.9578247070312 61.1397705078125 451.66845703125 50.81048583984375 C 436.23291015625 40.38238525390625 419.731689453125 31.42584228515625 402.6232604980469 24.18963623046875 C 385.1989135742188 16.8197021484375 366.9645385742188 11.15948486328125 348.4268188476562 7.36602783203125 C 329.4048461914062 3.4736328125 309.8263244628906 1.5 290.2350463867188 1.5 M 290.2350463867188 0 C 450.5274047851562 0 580.4700927734375 129.942626953125 580.4700927734375 290.2350463867188 C 580.4700927734375 450.5274047851562 450.5274047851562 580.4700927734375 290.2350463867188 580.4700927734375 C 129.942626953125 580.4700927734375 0 450.5274047851562 0 290.2350463867188 C 0 129.942626953125 129.942626953125 0 290.2350463867188 0 Z" stroke="none" fill="#000"/>
    </g>
  </g>
</svg>
