<svg xmlns="http://www.w3.org/2000/svg" xmlns:xlink="http://www.w3.org/1999/xlink" width="596" height="365" viewBox="0 0 596 365">
  <defs>
    <clipPath id="clip-path">
      <rect id="Rectangle_99" data-name="Rectangle 99" width="596" height="365" transform="translate(1324 2908)" fill="#ffa782" stroke="#707070" stroke-width="1"/>
    </clipPath>
  </defs>
  <g id="Mask_Group_1" data-name="Mask Group 1" transform="translate(-1324 -2908)" clip-path="url(#clip-path)">
    <g id="Path_23077" data-name="Path 23077" transform="translate(1324 2954)" fill="#fff">
      <path d="M 441 881.25 C 425.9824523925781 881.25 410.8375549316406 880.4852294921875 395.9861145019531 878.9769897460938 C 381.3497924804688 877.4905395507812 366.6426696777344 875.2459716796875 352.2734375 872.3056640625 C 338.0902099609375 869.4033203125 323.8952331542969 865.75341796875 310.0828857421875 861.4573364257812 C 296.4249877929688 857.2093505859375 282.8164367675781 852.2285766601562 269.6351013183594 846.6533203125 C 243.5486602783203 835.6196899414062 218.3881072998047 821.9630126953125 194.8525543212891 806.0626831054688 C 171.5404510498047 790.313232421875 149.6186676025391 772.2261352539062 129.6962280273438 752.3037719726562 C 109.7738876342773 732.38134765625 91.68677520751953 710.4595336914062 75.93733215332031 687.1474609375 C 60.0369987487793 663.6118774414062 46.38033294677734 638.4513549804688 35.3466682434082 612.3648681640625 C 29.77144432067871 599.1835327148438 24.7906665802002 585.5750122070312 20.54266738891602 571.9171142578125 C 16.24655532836914 558.1047973632812 12.59666633605957 543.9097900390625 9.694333076477051 529.7265625 C 6.754000186920166 515.3573608398438 4.509444236755371 500.6502075195312 3.023000001907349 486.0138854980469 C 1.514777779579163 471.1624450683594 0.75 456.0175476074219 0.75 441 C 0.75 425.9824523925781 1.514777779579163 410.8375549316406 3.023000001907349 395.9861145019531 C 4.509444236755371 381.3497924804688 6.754000186920166 366.6426696777344 9.694333076477051 352.2734375 C 12.59666633605957 338.0902099609375 16.24655532836914 323.8952331542969 20.54266738891602 310.0828857421875 C 24.7906665802002 296.4249877929688 29.77144432067871 282.8164367675781 35.3466682434082 269.6351013183594 C 46.38033294677734 243.5486602783203 60.0369987487793 218.3881072998047 75.93733215332031 194.8525543212891 C 91.68677520751953 171.5404510498047 109.7738876342773 149.6186676025391 129.6962280273438 129.6962280273438 C 149.6186676025391 109.7738876342773 171.5404510498047 91.68677520751953 194.8525543212891 75.93733215332031 C 218.3881072998047 60.0369987487793 243.5486602783203 46.38033294677734 269.6351013183594 35.3466682434082 C 282.8164367675781 29.77144432067871 296.4249877929688 24.7906665802002 310.0828857421875 20.54266738891602 C 323.8952331542969 16.24655532836914 338.0902099609375 12.59666633605957 352.2734375 9.694333076477051 C 366.6426696777344 6.754000186920166 381.3497924804688 4.509444236755371 395.9861145019531 3.023000001907349 C 410.8375549316406 1.514777779579163 425.9824523925781 0.75 441 0.75 C 456.0175476074219 0.75 471.1624450683594 1.514777779579163 486.0138854980469 3.023000001907349 C 500.6502075195312 4.509444236755371 515.3573608398438 6.754000186920166 529.7265625 9.694333076477051 C 543.9097900390625 12.59666633605957 558.1047973632812 16.24655532836914 571.9171142578125 20.54266738891602 C 585.5750122070312 24.7906665802002 599.1835327148438 29.77144432067871 612.3648681640625 35.3466682434082 C 638.4513549804688 46.38033294677734 663.6118774414062 60.0369987487793 687.1474609375 75.93733215332031 C 710.4595336914062 91.68677520751953 732.38134765625 109.7738876342773 752.3037719726562 129.6962280273438 C 772.2261352539062 149.6186676025391 790.313232421875 171.5404510498047 806.0626831054688 194.8525543212891 C 821.9630126953125 218.3881072998047 835.6196899414062 243.5486602783203 846.6533203125 269.6351013183594 C 852.2285766601562 282.8164367675781 857.2093505859375 296.4249877929688 861.4573364257812 310.0828857421875 C 865.75341796875 323.8952331542969 869.4033203125 338.0902099609375 872.3056640625 352.2734375 C 875.2459716796875 366.6426696777344 877.4905395507812 381.3497924804688 878.9769897460938 395.9861145019531 C 880.4852294921875 410.8375549316406 881.25 425.9824523925781 881.25 441 C 881.25 456.0175476074219 880.4852294921875 471.1624450683594 878.9769897460938 486.0138854980469 C 877.4905395507812 500.6502075195312 875.2459716796875 515.3573608398438 872.3056640625 529.7265625 C 869.4033203125 543.9097900390625 865.75341796875 558.1047973632812 861.4573364257812 571.9171142578125 C 857.2093505859375 585.5750122070312 852.2285766601562 599.1835327148438 846.6533203125 612.3648681640625 C 835.6196899414062 638.4513549804688 821.9630126953125 663.6118774414062 806.0626831054688 687.1474609375 C 790.313232421875 710.4595336914062 772.2261352539062 732.38134765625 752.3037719726562 752.3037719726562 C 732.38134765625 772.2261352539062 710.4595336914062 790.313232421875 687.1474609375 806.0626831054688 C 663.6118774414062 821.9630126953125 638.4513549804688 835.6196899414062 612.3648681640625 846.6533203125 C 599.1835327148438 852.2285766601562 585.5750122070312 857.2093505859375 571.9171142578125 861.4573364257812 C 558.1047973632812 865.75341796875 543.9097900390625 869.4033203125 529.7265625 872.3056640625 C 515.3573608398438 875.2459716796875 500.6502075195312 877.4905395507812 486.0138854980469 878.9769897460938 C 471.1624450683594 880.4852294921875 456.0175476074219 881.25 441 881.25 Z" stroke="none"/>
      <path d="M 441 1.5 C 426.0076599121094 1.5 410.8882141113281 2.263427734375 396.0618896484375 3.76910400390625 C 381.450439453125 5.25299072265625 366.7685546875 7.4937744140625 352.4238891601562 10.42913818359375 C 338.264892578125 13.326416015625 324.0943603515625 16.9700927734375 310.3055419921875 21.2587890625 C 296.6712036132812 25.49957275390625 283.0859985351562 30.4718017578125 269.92724609375 36.03741455078125 C 243.8853149414062 47.05224609375 218.7678833007812 60.685546875 195.2724609375 76.55877685546875 C 171.999755859375 92.28143310546875 150.115234375 110.337890625 130.2265625 130.2265625 C 110.337890625 150.115234375 92.28143310546875 171.999755859375 76.55877685546875 195.2724609375 C 60.685546875 218.7678833007812 47.05224609375 243.8853149414062 36.03741455078125 269.92724609375 C 30.4718017578125 283.0859985351562 25.49957275390625 296.6712036132812 21.2587890625 310.3055419921875 C 16.9700927734375 324.0943603515625 13.326416015625 338.264892578125 10.42913818359375 352.4238891601562 C 7.4937744140625 366.7685546875 5.25299072265625 381.450439453125 3.76910400390625 396.0618896484375 C 2.263427734375 410.8882141113281 1.5 426.0076599121094 1.5 441 C 1.5 455.9923400878906 2.263427734375 471.1117858886719 3.76910400390625 485.9381103515625 C 5.25299072265625 500.549560546875 7.4937744140625 515.2314453125 10.42913818359375 529.5761108398438 C 13.326416015625 543.735107421875 16.9700927734375 557.9056396484375 21.2587890625 571.6944580078125 C 25.49957275390625 585.3287353515625 30.4718017578125 598.9140014648438 36.03741455078125 612.07275390625 C 47.05224609375 638.1146850585938 60.685546875 663.2321166992188 76.55877685546875 686.7275390625 C 92.28143310546875 710.000244140625 110.337890625 731.884765625 130.2265625 751.7734375 C 150.115234375 771.662109375 171.999755859375 789.7185668945312 195.2724609375 805.4412231445312 C 218.7678833007812 821.314453125 243.8853149414062 834.94775390625 269.92724609375 845.9625244140625 C 283.0859985351562 851.5281982421875 296.6712036132812 856.5004272460938 310.3055419921875 860.7412109375 C 324.0943603515625 865.0299072265625 338.264892578125 868.673583984375 352.4238891601562 871.5708618164062 C 366.7685546875 874.5062255859375 381.450439453125 876.7470092773438 396.0618896484375 878.2308959960938 C 410.8882141113281 879.736572265625 426.0076599121094 880.5 441 880.5 C 455.9923400878906 880.5 471.1117858886719 879.736572265625 485.9381103515625 878.2308959960938 C 500.549560546875 876.7470092773438 515.2314453125 874.5062255859375 529.5761108398438 871.5708618164062 C 543.735107421875 868.673583984375 557.9056396484375 865.0299072265625 571.6944580078125 860.7412109375 C 585.3287353515625 856.5004272460938 598.9140014648438 851.5281982421875 612.07275390625 845.9625244140625 C 638.1146850585938 834.94775390625 663.2321166992188 821.314453125 686.7275390625 805.4412231445312 C 710.000244140625 789.7185668945312 731.884765625 771.662109375 751.7734375 751.7734375 C 771.662109375 731.884765625 789.7185668945312 710.000244140625 805.4412231445312 686.7275390625 C 821.314453125 663.2321166992188 834.94775390625 638.1146850585938 845.9625244140625 612.07275390625 C 851.5281982421875 598.9140014648438 856.5004272460938 585.3287353515625 860.7412109375 571.6944580078125 C 865.0299072265625 557.9056396484375 868.673583984375 543.735107421875 871.5708618164062 529.5761108398438 C 874.5062255859375 515.2314453125 876.7470092773438 500.549560546875 878.2308959960938 485.9381103515625 C 879.736572265625 471.1117858886719 880.5 455.9923400878906 880.5 441 C 880.5 426.0076599121094 879.736572265625 410.8882141113281 878.2308959960938 396.0618896484375 C 876.7470092773438 381.450439453125 874.5062255859375 366.7685546875 871.5708618164062 352.4238891601562 C 868.673583984375 338.264892578125 865.0299072265625 324.0943603515625 860.7412109375 310.3055419921875 C 856.5004272460938 296.6712036132812 851.5281982421875 283.0859985351562 845.9625244140625 269.92724609375 C 834.94775390625 243.8853149414062 821.314453125 218.7678833007812 805.4412231445312 195.2724609375 C 789.7185668945312 171.999755859375 771.662109375 150.115234375 751.7734375 130.2265625 C 731.884765625 110.337890625 710.000244140625 92.28143310546875 686.7275390625 76.55877685546875 C 663.2321166992188 60.685546875 638.1146850585938 47.05224609375 612.07275390625 36.03741455078125 C 598.9140014648438 30.4718017578125 585.3287353515625 25.49957275390625 571.6944580078125 21.2587890625 C 557.9056396484375 16.9700927734375 543.735107421875 13.326416015625 529.5761108398438 10.42913818359375 C 515.2314453125 7.4937744140625 500.549560546875 5.25299072265625 485.9381103515625 3.76910400390625 C 471.1117858886719 2.263427734375 455.9923400878906 1.5 441 1.5 M 441 0 C 684.5575561523438 0 882 197.4424438476562 882 441 C 882 684.5575561523438 684.5575561523438 882 441 882 C 197.4424438476562 882 0 684.5575561523438 0 441 C 0 197.4424438476562 197.4424438476562 0 441 0 Z" stroke="none" fill="#000"/>
    </g>
  </g>
</svg>
